<svg xmlns="http://www.w3.org/2000/svg" viewBox="0 0 32.92 32.92"><defs><style>.cls-1{fill:#231815;}</style></defs><g id="レイヤー_2" data-name="レイヤー 2"><g id="レイヤー_1-2" data-name="レイヤー 1"><path class="cls-1" d="M5.27,14.12c0-2,3.05-4.14,4.73-4.14a1.48,1.48,0,0,1,1.7,1.67c0,1.12-.85,2.53-1.88,4.94a4.53,4.53,0,0,0-.46,1.78.67.67,0,0,0,.7.73c.5,0,1-.49,1.51-1.26,0-2.64,1.23-5.47,2.54-5.47a.93.93,0,0,1,1,1c0,1.58-1,3.37-2,4.82.13.54.34.9.7.9,1.18,0,2.91-2.92,2.91-5.75a2.94,2.94,0,0,0-1.05-2.15c.11-.62.59-.91,1.29-.91,1.24,0,1.89,1.14,1.89,2.42,0,3.85-2.57,8.17-5.38,8.17a1.83,1.83,0,0,1-1.7-1.25A3.78,3.78,0,0,1,9,21.08a1.92,1.92,0,0,1-2.07-2.2,7.21,7.21,0,0,1,.76-2.72A2.19,2.19,0,0,1,5.27,14.12Zm2.91.81a11.79,11.79,0,0,0,1.18-2.82c0-.36-.08-.41-.27-.41-.4,0-1.91,1.05-1.91,2.06C7.18,14.23,7.44,14.55,8.18,14.93Z"/><path class="cls-1" d="M25.56,18.75c0,2.22-.72,5-3.48,5-1.95,0-3.38-1.09-3.38-2.63a1.43,1.43,0,0,1,.95-1.4,3.07,3.07,0,0,1-.73-2.19c0-3.68,3.18-7.33,5.7-7.33A1.54,1.54,0,0,1,26.36,12c0,1.27-.75,2.38-1.64,2.38a.66.66,0,0,1-.6-.25,5.34,5.34,0,0,0,.28-1.43c0-.54-.12-.71-.38-.71-1.08,0-2.88,2.76-2.88,5.13,0,.94.47,1.4,1.2,1.4a3.14,3.14,0,0,0,1.26-.31c.11-1.83,0-2.5,1-2.5.78,0,1.57.26,1.57.71A4.1,4.1,0,0,1,25.62,18Zm-5,1.53A2.59,2.59,0,0,0,22.66,22c1.05,0,.84-1.1.89-2.4a3.66,3.66,0,0,1-2.15.8A2.61,2.61,0,0,1,20.53,20.28Z"/><path class="cls-1" d="M16.46,32.92A16.46,16.46,0,1,1,32.92,16.46,16.47,16.47,0,0,1,16.46,32.92Zm0-32A15.53,15.53,0,1,0,32,16.46,15.54,15.54,0,0,0,16.46.93Z"/></g></g></svg>